arm26_HoldHorizontal_states
version=1
nRows=41
nColumns=17
inDegrees=yes

# SIMM Motion File Header:
name arm26_HoldHorizontal_states
datacolumns 17
datarows 41
otherdata 1
range 0.57810441 0.60351335
endheader
time	r_shoulder_elev	r_elbow_flex	r_shoulder_elev_u	r_elbow_flex_u	TRIlong.activation	TRIlong.fiber_length	TRIlat.activation	TRIlat.fiber_length	TRImed.activation	TRImed.fiber_length	BIClong.activation	BIClong.fiber_length	BICshort.activation	BICshort.fiber_length	BRA.activation	BRA.fiber_length
      0.57810441	    -55.70377793	    -45.56897859	    -57.61887484	   -379.45876304	      0.02000000	      0.11323312	      0.02000000	      0.07348830	      0.10000000	      0.06786180	      0.10000000	      0.15386852	      0.02000000	      0.16804500	      0.02000000	      0.07907107
      0.57880243	    -55.74368321	    -45.83393282	    -56.72133680	   -379.69488472	      0.02000000	      0.11332871	      0.02000000	      0.07361828	      0.10000000	      0.06796330	      0.10000000	      0.15380044	      0.02000000	      0.16798999	      0.02000000	      0.07899326
      0.57950045	    -55.78296122	    -46.09905497	    -55.82063516	   -379.94283562	      0.02000000	      0.11342473	      0.02000000	      0.07369335	      0.10000000	      0.06806512	      0.10000000	      0.15373156	      0.02000000	      0.16793391	      0.02000000	      0.07891508
      0.58019847	    -55.82161291	    -46.36434360	    -54.92782945	   -380.16870094	      0.02000000	      0.11352119	      0.02000000	      0.07382532	      0.10000000	      0.06816724	      0.10000000	      0.15366188	      0.02000000	      0.16787676	      0.02000000	      0.07883653
      0.58089649	    -55.85964055	    -46.62979324	    -54.03166012	   -380.40698125	      0.02000000	      0.11361806	      0.02000000	      0.07389962	      0.10000000	      0.06826966	      0.10000000	      0.15359140	      0.02000000	      0.16781855	      0.02000000	      0.07875762
      0.58159451	    -55.89704514	    -46.89540227	    -53.14363435	   -380.62233572	      0.02000000	      0.11371535	      0.02000000	      0.07403342	      0.10000000	      0.06837236	      0.10000000	      0.15352013	      0.02000000	      0.16775926	      0.02000000	      0.07867833
      0.58229253	    -55.93382894	    -47.16116520	    -52.25206875	   -380.85061650	      0.02000000	      0.11381304	      0.02000000	      0.07410703	      0.10000000	      0.06847535	      0.10000000	      0.15344805	      0.02000000	      0.16769892	      0.02000000	      0.07859869
      0.58291668	    -55.96619466	    -47.39892847	    -51.46183901	   -381.03501936	      0.02000000	      0.11390073	      0.02000000	      0.07421757	      0.10000000	      0.06856767	      0.10000000	      0.15338293	      0.02000000	      0.16764406	      0.02000000	      0.07852716
      0.58354082	    -55.99806707	    -47.63680763	    -50.67030167	   -381.22503713	      0.02000000	      0.11398872	      0.02000000	      0.07429404	      0.10000000	      0.06866019	      0.10000000	      0.15331718	      0.02000000	      0.16758836	      0.02000000	      0.07845535
      0.58416496	    -56.02944674	    -47.87480188	    -49.88375403	   -381.40127007	      0.02000000	      0.11407702	      0.02000000	      0.07440091	      0.10000000	      0.06875293	      0.10000000	      0.15325079	      0.02000000	      0.16753181	      0.02000000	      0.07838326
      0.58478910	    -56.06033563	    -48.11290620	    -49.09650138	   -381.58122638	      0.02000000	      0.11416561	      0.02000000	      0.07448111	      0.10000000	      0.06884587	      0.10000000	      0.15318377	      0.02000000	      0.16747442	      0.02000000	      0.07831087
      0.58541324	    -56.09073425	    -48.35111997	    -48.31391944	   -381.74831927	      0.02000000	      0.11425449	      0.02000000	      0.07458979	      0.10000000	      0.06893900	      0.10000000	      0.15311612	      0.02000000	      0.16741618	      0.02000000	      0.07823821
      0.58603738	    -56.12064450	    -48.58943828	    -47.53044610	   -381.91967339	      0.02000000	      0.11434366	      0.02000000	      0.07466908	      0.10000000	      0.06903233	      0.10000000	      0.15304784	      0.02000000	      0.16735711	      0.02000000	      0.07816526
      0.58666153	    -56.15006691	    -48.82786044	    -46.75184045	   -382.07749403	      0.02000000	      0.11443311	      0.02000000	      0.07477870	      0.10000000	      0.06912584	      0.10000000	      0.15297893	      0.02000000	      0.16729719	      0.02000000	      0.07809203
      0.58728567	    -56.17900341	    -49.06638138	    -45.97228245	   -382.23972486	      0.02000000	      0.11452283	      0.02000000	      0.07485779	      0.10000000	      0.06921954	      0.10000000	      0.15290939	      0.02000000	      0.16723644	      0.02000000	      0.07801852
      0.58790981	    -56.20745455	    -49.30500035	    -45.19770317	   -382.38801280	      0.02000000	      0.11461281	      0.02000000	      0.07496839	      0.10000000	      0.06931341	      0.10000000	      0.15283922	      0.02000000	      0.16717486	      0.02000000	      0.07794473
      0.58853395	    -56.23542228	    -49.54371221	    -44.42210549	   -382.54087361	      0.02000000	      0.11470306	      0.02000000	      0.07504720	      0.10000000	      0.06940746	      0.10000000	      0.15276843	      0.02000000	      0.16711244	      0.02000000	      0.07787067
      0.58915809	    -56.26290715	    -49.78251612	    -43.65159840	   -382.67937529	      0.02000000	      0.11479356	      0.02000000	      0.07515873	      0.10000000	      0.06950167	      0.10000000	      0.15269702	      0.02000000	      0.16704918	      0.02000000	      0.07779633
      0.58978223	    -56.28991114	    -50.02140685	    -42.88001430	   -382.82258720	      0.02000000	      0.11488431	      0.02000000	      0.07523727	      0.10000000	      0.06959605	      0.10000000	      0.15262498	      0.02000000	      0.16698510	      0.02000000	      0.07772171
      0.59040637	    -56.31643480	    -50.26038349	    -42.11362461	   -382.95104441	      0.02000000	      0.11497531	      0.02000000	      0.07534969	      0.10000000	      0.06969059	      0.10000000	      0.15255232	      0.02000000	      0.16692019	      0.02000000	      0.07764683
      0.59103052	    -56.34248013	    -50.49944071	    -41.34610504	   -383.08432904	      0.02000000	      0.11506654	      0.02000000	      0.07542798	      0.10000000	      0.06978528	      0.10000000	      0.15247905	      0.02000000	      0.16685446	      0.02000000	      0.07757167
      0.59165466	    -56.36804771	    -50.73857754	    -40.58387624	   -383.20248220	      0.02000000	      0.11515801	      0.02000000	      0.07554123	      0.10000000	      0.06988012	      0.10000000	      0.15240515	      0.02000000	      0.16678790	      0.02000000	      0.07749625
      0.59227880	    -56.39313953	    -50.97778854	    -39.82047029	   -383.32556003	      0.02000000	      0.11524971	      0.02000000	      0.07561927	      0.10000000	      0.06997511	      0.10000000	      0.15233064	      0.02000000	      0.16672051	      0.02000000	      0.07742056
      0.59290294	    -56.41775620	    -51.21707266	    -39.06244358	   -383.43314966	      0.02000000	      0.11534163	      0.02000000	      0.07573332	      0.10000000	      0.07007024	      0.10000000	      0.15225551	      0.02000000	      0.16665231	      0.02000000	      0.07734460
      0.59352708	    -56.44189972	    -51.45642440	    -38.30319788	   -383.54574175	      0.02000000	      0.11543377	      0.02000000	      0.07581112	      0.10000000	      0.07016550	      0.10000000	      0.15217977	      0.02000000	      0.16658329	      0.02000000	      0.07726838
      0.59415122	    -56.46557071	    -51.69584259	    -37.54941172	   -383.64250999	      0.02000000	      0.11552612	      0.02000000	      0.07592591	      0.10000000	      0.07026089	      0.10000000	      0.15210342	      0.02000000	      0.16651346	      0.02000000	      0.07719190
      0.59477537	    -56.48877119	    -51.93532167	    -36.79436997	   -383.74433933	      0.02000000	      0.11561868	      0.02000000	      0.07600349	      0.10000000	      0.07035641	      0.10000000	      0.15202645	      0.02000000	      0.16644281	      0.02000000	      0.07711516
      0.59539951	    -56.51150179	    -52.17486038	    -36.04485953	   -383.83003128	      0.02000000	      0.11571144	      0.02000000	      0.07611896	      0.10000000	      0.07045205	      0.10000000	      0.15194888	      0.02000000	      0.16637134	      0.02000000	      0.07703816
      0.59602365	    -56.53376453	    -52.41445310	    -35.29406206	   -383.92082411	      0.02000000	      0.11580440	      0.02000000	      0.07619634	      0.10000000	      0.07054782	      0.10000000	      0.15187070	      0.02000000	      0.16629907	      0.02000000	      0.07696090
      0.59664779	    -56.55556006	    -52.65409845	    -34.54885887	   -383.99518902	      0.02000000	      0.11589754	      0.02000000	      0.07631244	      0.10000000	      0.07064369	      0.10000000	      0.15179192	      0.02000000	      0.16622600	      0.02000000	      0.07688339
      0.59727193	    -56.57689041	    -52.89379075	    -33.80234221	   -384.07467607	      0.02000000	      0.11599088	      0.02000000	      0.07638964	      0.10000000	      0.07073967	      0.10000000	      0.15171253	      0.02000000	      0.16615212	      0.02000000	      0.07680563
      0.59789607	    -56.59775624	    -53.13352854	    -33.06147378	   -384.13746846	      0.02000000	      0.11608439	      0.02000000	      0.07650632	      0.10000000	      0.07083576	      0.10000000	      0.15163254	      0.02000000	      0.16607743	      0.02000000	      0.07672761
      0.59852021	    -56.61815959	    -53.37330605	    -32.31927025	   -384.20538609	      0.02000000	      0.11617809	      0.02000000	      0.07658335	      0.10000000	      0.07093195	      0.10000000	      0.15155196	      0.02000000	      0.16600195	      0.02000000	      0.07664935
      0.59914436	    -56.63810113	    -53.61312176	    -31.58275972	   -384.25636673	      0.02000000	      0.11627195	      0.02000000	      0.07670055	      0.10000000	      0.07102824	      0.10000000	      0.15147077	      0.02000000	      0.16592567	      0.02000000	      0.07657084
      0.59976850	    -56.65758291	    -53.85296982	    -30.84489712	   -384.31245805	      0.02000000	      0.11636598	      0.02000000	      0.07677744	      0.10000000	      0.07112462	      0.10000000	      0.15138899	      0.02000000	      0.16584860	      0.02000000	      0.07649209
      0.60039264	    -56.67660559	    -54.09284861	    -30.11276300	   -384.35139489	      0.02000000	      0.11646018	      0.02000000	      0.07689510	      0.10000000	      0.07122108	      0.10000000	      0.15130661	      0.02000000	      0.16577073	      0.02000000	      0.07641310
      0.60101678	    -56.69517123	    -54.33275224	    -29.37926428	   -384.39541069	      0.02000000	      0.11655453	      0.02000000	      0.07697188	      0.10000000	      0.07131763	      0.10000000	      0.15122365	      0.02000000	      0.16569208	      0.02000000	      0.07633386
      0.60164092	    -56.71328053	    -54.57267899	    -28.65152016	   -384.42207965	      0.02000000	      0.11664903	      0.02000000	      0.07708993	      0.10000000	      0.07141426	      0.10000000	      0.15114009	      0.02000000	      0.16561264	      0.02000000	      0.07625439
      0.60226506	    -56.73093551	    -54.81262292	    -27.92240315	   -384.45377934	      0.02000000	      0.11674368	      0.02000000	      0.07716662	      0.10000000	      0.07151097	      0.10000000	      0.15105595	      0.02000000	      0.16553241	      0.02000000	      0.07617468
      0.60288921	    -56.74813688	    -55.05258221	    -27.19905750	   -384.46796507	      0.02000000	      0.11683847	      0.02000000	      0.07728502	      0.10000000	      0.07160774	      0.10000000	      0.15097122	      0.02000000	      0.16545141	      0.02000000	      0.07609474
      0.60351335	    -56.76488669	    -55.29255088	    -26.47433465	   -384.48711744	      0.02000000	      0.11693340	      0.02000000	      0.07736165	      0.10000000	      0.07170459	      0.10000000	      0.15088591	      0.02000000	      0.16536963	      0.02000000	      0.07601456
